<svg width="76" height="58" viewBox="0 0 76 58" fill="none" xmlns="http://www.w3.org/2000/svg">
<path d="M36.6852 53.7415C39.2692 56.0907 43.2917 57 46.6702 57C53.0418 57 59.045 55.7524 64.7823 52.9793C66.6075 52.0971 67.9874 51.0682 69.346 49.5875C71.2913 47.4673 73.5301 45.3458 74.3957 42.5084C74.9706 40.624 75.1688 38.4974 74.6244 36.5917C73.989 34.3678 73.701 31.8619 72.8332 29.7318C71.9524 27.57 70.3968 25.8501 69.2793 23.8246C68.6513 22.6863 68.5998 21.1003 68.5838 19.823C68.5653 18.3372 68.5675 16.6844 67.8883 15.3259C67.0186 13.5865 66.147 11.816 65.0776 10.1905C64.1578 8.79235 62.9819 7.64092 61.8954 6.36993C60.6971 4.96815 59.4568 3.66121 57.8557 2.72083C53.5547 0.194847 48.3161 0.987786 43.5832 1.73948C37.452 2.71325 31.7241 5.59118 26.2619 8.46602C20.066 11.727 13.3828 13.9325 7.18748 17.2124C3.73413 19.0407 0.704383 21.5708 1.02307 25.8731C1.31084 29.758 4.95236 33.0555 8.25458 34.5719C12.0857 36.331 16.2001 36.8508 20.0498 38.5163C22.36 39.5157 24.8748 40.507 26.9765 41.9082C27.922 42.5385 28.7118 43.7825 29.406 44.6712C30.2942 45.808 31.6966 46.6486 32.3977 47.9106C32.9952 48.9862 33.5598 50.0676 34.2842 51.0738C34.9649 52.0192 36.0448 53.4829 37.0883 54.0046" stroke="#404040" stroke-width="1.38646" stroke-linecap="round"/>
<path d="M36.8461 50.846C39.1071 52.9015 42.6268 53.6972 45.583 53.6972C51.1582 53.6972 56.4109 52.6055 61.4311 50.1791C63.0281 49.4072 64.2356 48.5069 65.4244 47.2112C67.1265 45.3561 69.0854 43.4997 69.8428 41.0171C70.3459 39.3682 70.5193 37.5074 70.0429 35.84C69.4869 33.894 69.235 31.7014 68.4756 29.8375C67.705 27.946 66.3438 26.441 65.366 24.6688C64.8165 23.6727 64.7714 22.285 64.7574 21.1673C64.7412 19.8672 64.7432 18.421 64.1488 17.2324C63.3879 15.7104 62.6252 14.1612 61.6895 12.7389C60.8846 11.5155 59.8557 10.508 58.9051 9.39589C57.8565 8.16934 56.7713 7.02576 55.3703 6.20293C51.6069 3.9927 47.0231 4.68652 42.8819 5.34425C37.5171 6.1963 32.5052 8.71449 27.7257 11.23C22.3043 14.0833 16.4566 16.0132 11.0356 18.8831C8.01395 20.4828 5.36292 22.6966 5.64177 26.4612C5.89357 29.8604 9.0799 32.7458 11.9693 34.0726C15.3215 35.6118 18.9217 36.0667 22.2902 37.524C24.3116 38.3985 26.512 39.2659 28.351 40.4918C29.1783 41.0434 29.8694 42.1319 30.4769 42.9095C31.254 43.9042 32.4811 44.6398 33.0946 45.744C33.6174 46.6851 34.1114 47.6314 34.7452 48.5118C35.3409 49.339 36.2857 50.6197 37.1988 51.0763" stroke="#404040" stroke-width="1.38646" stroke-linecap="round"/>
<path d="M37.0069 47.4885C38.945 49.2504 41.9618 49.9324 44.4957 49.9324C49.2744 49.9324 53.7768 48.9966 58.0798 46.9169C59.4486 46.2552 60.4836 45.4835 61.5026 44.373C62.9616 42.7829 64.6406 41.1917 65.2898 39.0637C65.721 37.6504 65.8697 36.0554 65.4613 34.6262C64.9848 32.9582 64.7688 31.0788 64.1179 29.4812C63.4574 27.8599 62.2907 26.5699 61.4526 25.0508C60.9815 24.1971 60.9429 23.0076 60.9309 22.0496C60.917 20.9353 60.9187 19.6957 60.4093 18.6768C59.757 17.3723 59.1033 16.0444 58.3013 14.8253C57.6114 13.7766 56.7295 12.9131 55.9146 11.9598C55.0159 10.9085 54.0857 9.92828 52.8848 9.22299C49.659 7.32851 45.7301 7.92321 42.1804 8.48698C37.5821 9.21731 33.2861 11.3758 29.1895 13.5319C24.5426 15.9776 19.5302 17.6318 14.8837 20.0917C12.2936 21.4629 10.0213 23.3604 10.2603 26.5872C10.4762 29.5009 13.2073 31.974 15.684 33.1113C18.5573 34.4306 21.6431 34.8205 24.5304 36.0696C26.263 36.8192 28.1491 37.5627 29.7254 38.6135C30.4345 39.0862 31.0269 40.0193 31.5476 40.6858C32.2137 41.5384 33.2655 42.1688 33.7913 43.1153C34.2395 43.922 34.6629 44.7331 35.2062 45.4877C35.7167 46.1968 36.5266 47.2945 37.3092 47.6858" stroke="#404040" stroke-width="1.38646" stroke-linecap="round"/>
<path d="M37.1679 44.593C38.7829 46.0613 41.2969 46.6296 43.4085 46.6296C47.3908 46.6296 51.1427 45.8498 54.7286 44.1167C55.8693 43.5653 56.7318 42.9222 57.5809 41.9967C58.7967 40.6716 60.1959 39.3457 60.7369 37.5723C61.0963 36.3946 61.2202 35.0654 60.8799 33.8744C60.4827 32.4845 60.3028 30.9183 59.7604 29.5869C59.2099 28.2358 58.2376 27.1609 57.5392 25.895C57.1467 25.1835 57.1145 24.1923 57.1045 23.394C57.0929 22.4653 57.0943 21.4323 56.6698 20.5833C56.1263 19.4962 55.5815 18.3896 54.9132 17.3737C54.3382 16.4998 53.6033 15.7802 52.9242 14.9858C52.1753 14.1097 51.4002 13.2928 50.3994 12.7051C47.7113 11.1264 44.4372 11.6219 41.4791 12.0918C37.6471 12.7004 34.0672 14.4991 30.6533 16.2958C26.7809 18.334 22.6039 19.7124 18.7318 21.7623C16.5735 22.905 14.6799 24.4863 14.879 27.1753C15.0589 29.6033 17.3349 31.6643 19.3987 32.612C21.7932 33.7115 24.3647 34.0364 26.7708 35.0773C28.2146 35.7019 29.7864 36.3215 31.0999 37.1972C31.6909 37.5911 32.1845 38.3687 32.6184 38.9241C33.1735 39.6346 34.05 40.16 34.4882 40.9487C34.8617 41.6209 35.2145 42.2968 35.6672 42.9257C36.0927 43.5166 36.7676 44.4314 37.4198 44.7575" stroke="#404040" stroke-width="1.38646" stroke-linecap="round"/>
<path d="M37.7909 41.2354C39.083 42.41 41.0942 42.8646 42.7834 42.8646C45.9693 42.8646 48.9708 42.2408 51.8395 40.8543C52.7521 40.4132 53.4421 39.8987 54.1214 39.1584C55.094 38.0983 56.2134 37.0375 56.6462 35.6188C56.9337 34.6766 57.0328 33.6133 56.7605 32.6605C56.4428 31.5485 56.2989 30.2956 55.8649 29.2305C55.4246 28.1496 54.6468 27.2897 54.088 26.2769C53.774 25.7078 53.7483 24.9148 53.7403 24.2761C53.731 23.5332 53.7321 22.7068 53.3925 22.0276C52.9577 21.1579 52.5219 20.2726 51.9872 19.4599C51.5273 18.7608 50.9393 18.1851 50.3961 17.5496C49.7969 16.8487 49.1768 16.1952 48.3762 15.725C46.2257 14.462 43.6064 14.8585 41.24 15.2344C38.1744 15.7212 35.3104 17.1602 32.5793 18.5976C29.4814 20.2281 26.1398 21.3309 23.0421 22.9708C21.3154 23.885 19.8006 25.15 19.9599 27.3012C20.1038 29.2436 21.9245 30.8924 23.5757 31.6505C25.4912 32.5301 27.5484 32.79 29.4733 33.6228C30.6284 34.1225 31.8858 34.6181 32.9366 35.3187C33.4093 35.6339 33.8042 36.2559 34.1514 36.7002C34.5955 37.2686 35.2967 37.6889 35.6472 38.3199C35.946 38.8577 36.2282 39.3984 36.5905 39.9015C36.9308 40.3742 37.4707 41.1061 37.9925 41.3669" stroke="#404040" stroke-width="1.38646" stroke-linecap="round"/>
<path d="M37.9519 38.34C38.9209 39.2209 40.4293 39.5619 41.6963 39.5619C44.0856 39.5619 46.3368 39.094 48.4883 38.0541C49.1727 37.7233 49.6902 37.3375 50.1997 36.7822C50.9292 35.9871 51.7687 35.1916 52.0933 34.1275C52.3089 33.4209 52.3833 32.6234 52.1791 31.9088C51.9408 31.0748 51.8328 30.1351 51.5074 29.3363C51.1771 28.5256 50.5938 27.8807 50.1747 27.1211C49.9392 26.6943 49.9199 26.0995 49.9139 25.6205C49.9069 25.0633 49.9078 24.4435 49.6531 23.9341C49.3269 23.2818 49.0001 22.6179 48.5991 22.0083C48.2541 21.484 47.8132 21.0522 47.4057 20.5756C46.9564 20.0499 46.4913 19.5598 45.8908 19.2072C44.2779 18.26 42.3135 18.5573 40.5386 18.8392C38.2395 19.2044 36.0915 20.2836 34.0432 21.3616C31.7197 22.5845 29.2135 23.4116 26.8903 24.6415C25.5952 25.3271 24.4591 26.2759 24.5786 27.8893C24.6865 29.3461 26.0521 30.5827 27.2904 31.1513C28.7271 31.811 30.27 32.006 31.7136 32.6305C32.5799 33.0053 33.523 33.377 34.3111 33.9024C34.6657 34.1388 34.9619 34.6053 35.2222 34.9386C35.5553 35.3649 36.0812 35.6801 36.3441 36.1534C36.5682 36.5567 36.7799 36.9622 37.0515 37.3396C37.3068 37.6941 37.7117 38.243 38.103 38.4386" stroke="#404040" stroke-width="1.38646" stroke-linecap="round"/>
<path d="M38.1128 34.9824C38.7588 35.5697 39.7644 35.797 40.6091 35.797C42.202 35.797 43.7028 35.4851 45.1371 34.7918C45.5934 34.5713 45.9384 34.3141 46.278 33.9439C46.7644 33.4138 47.324 32.8834 47.5405 32.1741C47.6842 31.703 47.7337 31.1713 47.5976 30.6949C47.4388 30.139 47.3668 29.5125 47.1498 28.9799C46.9296 28.4395 46.5407 28.0095 46.2614 27.5032C46.1044 27.2186 46.0915 26.8221 46.0875 26.5027C46.0828 26.1313 46.0834 25.7181 45.9136 25.3785C45.6962 24.9436 45.4783 24.501 45.2109 24.0946C44.981 23.7451 44.687 23.4572 44.4154 23.1395C44.1158 22.789 43.8057 22.4623 43.4054 22.2272C42.3302 21.5957 41.0205 21.7939 39.8373 21.9819C38.3045 22.2253 36.8725 22.9448 35.507 23.6635C33.958 24.4787 32.2872 25.0301 30.7384 25.8501C29.8751 26.3072 29.1176 26.9397 29.1973 28.0153C29.2692 28.9865 30.1796 29.8109 31.0052 30.19C31.9629 30.6298 32.9916 30.7597 33.954 31.1761C34.5315 31.4259 35.1602 31.6738 35.6856 32.024C35.922 32.1816 36.1195 32.4926 36.293 32.7148C36.5151 32.999 36.8657 33.2092 37.041 33.5246C37.1903 33.7935 37.3315 34.0639 37.5126 34.3154C37.6828 34.5518 37.9527 34.9177 38.2136 35.0482" stroke="#404040" stroke-width="1.38646" stroke-linecap="round"/>
<path d="M39.5218 32.4942C39.1042 32.4942 38.6079 32.3831 38.2846 32.0967C38.1669 32.0184 38.05 31.8597 37.9735 31.7534C37.883 31.6277 37.8124 31.4925 37.7377 31.358C37.6501 31.2003 37.4748 31.0952 37.3637 30.9531C37.277 30.842 37.1782 30.6865 37.06 30.6077C36.7973 30.4326 36.483 30.3087 36.1942 30.1837C35.713 29.9756 35.1987 29.9106 34.7198 29.6907C34.307 29.5011 33.8518 29.0889 33.8159 28.6033C33.776 28.0655 34.1548 27.7493 34.5864 27.5208C35.3608 27.1108 36.1962 26.8351 36.9707 26.4275C37.6535 26.0681 38.3695 25.7084 39.1359 25.5866C39.7275 25.4927 40.3823 25.3936 40.9199 25.7093C41.1201 25.8269 41.2751 25.9902 41.4249 26.1654C41.5607 26.3243 41.7077 26.4682 41.8227 26.643C41.9564 26.8462 42.0653 27.0675 42.174 27.2849C42.2589 27.4548 42.2586 27.6613 42.261 27.8471C42.263 28.0067 42.2694 28.205 42.3479 28.3473C42.4876 28.6005 42.682 28.8155 42.7921 29.0857C42.9006 29.3519 42.9366 29.6652 43.016 29.9432C43.0841 30.1814 43.0593 30.4472 42.9875 30.6828C42.8792 31.0374 42.5994 31.3026 42.3562 31.5676C42.1864 31.7527 42.0139 31.8813 41.7858 31.9916C41.0686 32.3382 40.3182 32.4942 39.5218 32.4942Z" fill="#404040"/>
<path d="M38.2736 32.0869C38.5966 32.3805 39.0994 32.4942 39.5218 32.4942C40.3182 32.4942 41.0686 32.3382 41.7858 31.9916C42.0139 31.8813 42.1864 31.7527 42.3562 31.5676C42.5994 31.3026 42.8792 31.0374 42.9875 30.6828C43.0593 30.4472 43.0841 30.1814 43.016 29.9432C42.9366 29.6652 42.9006 29.3519 42.7921 29.0857C42.682 28.8155 42.4876 28.6005 42.3479 28.3473C42.2694 28.205 42.263 28.0067 42.261 27.8471C42.2586 27.6613 42.2589 27.4548 42.174 27.2849C42.0653 27.0675 41.9564 26.8462 41.8227 26.643C41.7077 26.4682 41.5607 26.3243 41.4249 26.1654C41.2751 25.9902 41.1201 25.8269 40.9199 25.7093C40.3823 25.3936 39.7275 25.4927 39.1359 25.5866C38.3695 25.7084 37.6535 26.0681 36.9707 26.4275C36.1962 26.8351 35.3608 27.1108 34.5864 27.5208C34.1548 27.7493 33.776 28.0655 33.8159 28.6033C33.8518 29.0889 34.307 29.5011 34.7198 29.6907C35.1987 29.9106 35.713 29.9756 36.1942 30.1837C36.483 30.3087 36.7973 30.4326 37.06 30.6077C37.1782 30.6865 37.277 30.842 37.3637 30.9531C37.4748 31.0952 37.6501 31.2003 37.7377 31.358C37.8124 31.4925 37.883 31.6277 37.9735 31.7534C38.0586 31.8716 38.1936 32.0546 38.324 32.1198" stroke="#404040" stroke-width="1.38646" stroke-linecap="round"/>
</svg>
