<svg width="244" height="44" viewBox="0 0 244 44" fill="none" xmlns="http://www.w3.org/2000/svg">
<path d="M27.7639 40.5562C29.7019 42.318 32.7188 43 35.2526 43C40.0314 43 44.5337 42.0643 48.8367 39.9845C50.2056 39.3229 51.2406 38.5512 52.2595 37.4406C53.7185 35.8505 55.3976 34.2593 56.0468 32.1313C56.478 30.718 56.6266 29.123 56.2183 27.6938C55.7417 26.0259 55.5258 24.1464 54.8749 22.5488C54.2143 20.9275 53.0476 19.6376 52.2095 18.1185C51.7385 17.2647 51.6998 16.0752 51.6879 15.1173C51.6739 14.0029 51.6756 12.7633 51.1662 11.7445C50.514 10.4399 49.8603 9.11201 49.0582 7.89289C48.3683 6.84426 47.4864 5.98069 46.6715 5.02745C45.7728 3.97611 44.8426 2.9959 43.6417 2.29062C40.416 0.396135 36.4871 0.99084 32.9374 1.55461C28.339 2.28494 24.0431 4.44338 19.9464 6.59951C15.2995 9.04525 10.2871 10.6994 5.64061 13.1593C3.0506 14.5305 0.778288 16.4281 1.01731 19.6548C1.23313 22.5685 3.96427 25.0416 6.44094 26.1789C9.31425 27.4983 12.4001 27.8881 15.2874 29.1372C17.02 29.8868 18.9061 30.6303 20.4823 31.6811C21.1915 32.1539 21.7838 33.0869 22.3045 33.7534C22.9706 34.606 24.0225 35.2365 24.5483 36.1829C24.9964 36.9896 25.4198 37.8007 25.9631 38.5553C26.4737 39.2644 27.2836 40.3622 28.0662 40.7535" stroke="#404040" stroke-width="1.03985" stroke-linecap="round"/>
<path d="M27.8846 38.3846C29.5804 39.9262 32.2201 40.523 34.4372 40.523C38.6186 40.523 42.5582 39.7042 46.3233 37.8844C47.5211 37.3055 48.4267 36.6302 49.3183 35.6585C50.5949 34.2671 52.064 32.8749 52.6321 31.0128C53.0094 29.7762 53.1395 28.3806 52.7822 27.13C52.3652 25.6706 52.1762 24.0261 51.6067 22.6282C51.0287 21.2095 50.0079 20.0808 49.2745 18.7516C48.8624 18.0046 48.8286 16.9638 48.8181 16.1255C48.8059 15.1505 48.8074 14.0658 48.3616 13.1744C47.7909 12.0329 47.2189 10.871 46.5171 9.80423C45.9135 8.88668 45.1418 8.13105 44.4288 7.29696C43.6424 6.37705 42.8285 5.51937 41.7777 4.90224C38.9552 3.24457 35.5174 3.76493 32.4114 4.25823C28.3878 4.89727 24.6289 6.78591 21.0443 8.67252C16.9783 10.8125 12.5924 12.2599 8.52672 14.4124C6.26046 15.6121 4.27219 17.2725 4.48133 20.0959C4.67018 22.6454 7.05992 24.8094 9.227 25.8045C11.7412 26.9589 14.4413 27.3001 16.9676 28.393C18.4837 29.0489 20.134 29.6994 21.5132 30.6189C22.1337 31.0326 22.652 31.849 23.1076 32.4322C23.6905 33.1782 24.6108 33.7299 25.0709 34.558C25.4631 35.2639 25.8335 35.9736 26.3089 36.6339C26.7557 37.2543 27.4643 38.2148 28.1491 38.5572" stroke="#404040" stroke-width="1.03985" stroke-linecap="round"/>
<path d="M28.0052 35.8663C29.4587 37.1877 31.7213 37.6992 33.6217 37.6992C37.2058 37.6992 40.5825 36.9974 43.8098 35.4376C44.8365 34.9414 45.6127 34.3626 46.3769 33.5297C47.4711 32.3371 48.7304 31.1437 49.2173 29.5477C49.5407 28.4877 49.6522 27.2915 49.346 26.2196C48.9885 24.9686 48.8266 23.559 48.3384 22.3609C47.843 21.1448 46.968 20.1774 46.3394 19.0381C45.9861 18.3978 45.9571 17.5057 45.9482 16.7872C45.9377 15.9514 45.939 15.0217 45.5569 14.2576C45.0677 13.2791 44.5775 12.2832 43.9759 11.3689C43.4585 10.5824 42.7971 9.93474 42.1859 9.2198C41.5119 8.4313 40.8142 7.69615 39.9136 7.16718C37.4943 5.74632 34.5475 6.19235 31.8853 6.61517C28.4365 7.16292 25.2145 8.78176 22.1421 10.3989C18.6569 12.2332 14.8976 13.4738 11.4127 15.3187C9.4702 16.3471 7.76597 17.7703 7.94523 20.1903C8.1071 22.3756 10.1555 24.2305 12.013 25.0834C14.1679 26.0729 16.4823 26.3653 18.6478 27.3021C19.9473 27.8643 21.3618 28.4219 22.544 29.2101C23.0759 29.5646 23.5201 30.2644 23.9106 30.7643C24.4102 31.4037 25.1991 31.8766 25.5935 32.5864C25.9296 33.1914 26.2471 33.7998 26.6546 34.3657C27.0375 34.8975 27.6449 35.7208 28.2319 36.0143" stroke="#404040" stroke-width="1.03985" stroke-linecap="round"/>
<path d="M28.1259 33.6948C29.3371 34.7959 31.2227 35.2222 32.8063 35.2222C35.793 35.2222 38.607 34.6373 41.2964 33.3375C42.1519 32.924 42.7988 32.4416 43.4356 31.7475C44.3475 30.7537 45.3969 29.7592 45.8027 28.4292C46.0722 27.5459 46.1651 26.5491 45.9099 25.6558C45.612 24.6133 45.477 23.4387 45.0702 22.4402C44.6574 21.4269 43.9282 20.6206 43.4044 19.6712C43.11 19.1376 43.0858 18.3942 43.0784 17.7955C43.0697 17.099 43.0707 16.3242 42.7523 15.6875C42.3447 14.8721 41.9361 14.0422 41.4348 13.2802C41.0037 12.6248 40.4525 12.0851 39.9432 11.4893C39.3815 10.8322 38.8001 10.2196 38.0495 9.77881C36.0334 8.59475 33.5778 8.96644 31.3593 9.3188C28.4853 9.77525 25.8004 11.1243 23.2399 12.4719C20.3356 14.0005 17.2029 15.0343 14.2988 16.5717C12.6801 17.4287 11.2599 18.6147 11.4093 20.6314C11.5441 22.4525 13.2511 23.9982 14.799 24.709C16.5948 25.5336 18.5235 25.7772 20.3281 26.5579C21.4109 27.0264 22.5897 27.4911 23.5749 28.1479C24.0181 28.4433 24.3883 29.0265 24.7138 29.443C25.1301 29.9759 25.7875 30.37 26.1161 30.9615C26.3962 31.4657 26.6608 31.9726 27.0004 32.4443C27.3195 32.8874 27.8257 33.5735 28.3148 33.8181" stroke="#404040" stroke-width="1.03985" stroke-linecap="round"/>
<path d="M28.5931 31.1765C29.5621 32.0574 31.0706 32.3984 32.3375 32.3984C34.7269 32.3984 36.978 31.9306 39.1295 30.8907C39.814 30.5599 40.3315 30.174 40.8409 29.6187C41.5704 28.8237 42.41 28.0281 42.7346 26.9641C42.9502 26.2574 43.0245 25.4599 42.8203 24.7453C42.582 23.9114 42.4741 22.9717 42.1486 22.1729C41.8183 21.3622 41.235 20.7172 40.8159 19.9577C40.5804 19.5308 40.5611 18.9361 40.5551 18.4571C40.5482 17.8999 40.549 17.2801 40.2943 16.7707C39.9682 16.1184 39.6413 15.4544 39.2403 14.8449C38.8954 14.3206 38.4544 13.8888 38.047 13.4122C37.5976 12.8865 37.1325 12.3964 36.5321 12.0437C34.9192 11.0965 32.9547 11.3939 31.1799 11.6757C28.8807 12.0409 26.7327 13.1201 24.6844 14.1982C22.3609 15.4211 19.8547 16.2481 17.5315 17.4781C16.2365 18.1637 15.1003 19.1125 15.2198 20.7258C15.3277 22.1827 16.6933 23.4193 17.9316 23.9879C19.3683 24.6476 20.9112 24.8425 22.3549 25.4671C23.2212 25.8418 24.1642 26.2136 24.9524 26.739C25.3069 26.9754 25.6031 27.4419 25.8634 27.7751C26.1965 28.2014 26.7224 28.5167 26.9853 28.9899C27.2094 29.3932 27.4211 29.7988 27.6928 30.1761C27.948 30.5307 28.353 31.0795 28.7443 31.2752" stroke="#404040" stroke-width="1.03985" stroke-linecap="round"/>
<path d="M28.7139 29.0049C29.4407 29.6656 30.572 29.9214 31.5222 29.9214C33.3142 29.9214 35.0026 29.5705 36.6163 28.7906C37.1296 28.5425 37.5177 28.2531 37.8998 27.8366C38.4469 27.2403 39.0766 26.6436 39.32 25.8456C39.4817 25.3156 39.5375 24.7175 39.3843 24.1816C39.2056 23.5561 39.1246 22.8513 38.8806 22.2522C38.6329 21.6442 38.1953 21.1605 37.8811 20.5908C37.7044 20.2707 37.6899 19.8246 37.6854 19.4654C37.6802 19.0475 37.6809 18.5826 37.4898 18.2006C37.2452 17.7114 37.0001 17.2134 36.6993 16.7562C36.4406 16.363 36.1099 16.0391 35.8043 15.6817C35.4673 15.2874 35.1185 14.9199 34.6681 14.6554C33.4585 13.9449 31.9851 14.168 30.654 14.3794C28.9296 14.6532 27.3186 15.4627 25.7824 16.2712C24.0398 17.1884 22.1602 17.8087 20.4177 18.7311C19.4465 19.2453 18.5943 19.9569 18.684 21.1669C18.7649 22.2596 19.7891 23.187 20.7178 23.6135C21.7953 24.1082 22.9525 24.2544 24.0353 24.7228C24.685 25.0039 25.3923 25.2827 25.9834 25.6768C26.2493 25.8541 26.4714 26.204 26.6667 26.4539C26.9165 26.7736 27.3109 27.0101 27.5081 27.365C27.6762 27.6675 27.8349 27.9717 28.0387 28.2546C28.2301 28.5205 28.5338 28.9322 28.8273 29.0789" stroke="#404040" stroke-width="1.03985" stroke-linecap="round"/>
<path d="M28.8345 26.4868C29.319 26.9273 30.0732 27.0978 30.7067 27.0978C31.9014 27.0978 33.027 26.8638 34.1027 26.3439C34.445 26.1785 34.7037 25.9856 34.9584 25.7079C35.3232 25.3104 35.7429 24.9126 35.9053 24.3806C36.013 24.0273 36.0502 23.6285 35.9481 23.2712C35.829 22.8542 35.775 22.3844 35.6123 21.985C35.4471 21.5797 35.1555 21.2572 34.9459 20.8774C34.8282 20.664 34.8185 20.3666 34.8155 20.1271C34.812 19.8485 34.8125 19.5386 34.6851 19.2839C34.522 18.9578 34.3586 18.6258 34.1581 18.321C33.9856 18.0588 33.7652 17.843 33.5614 17.6046C33.3368 17.3418 33.1042 17.0968 32.804 16.9204C31.9976 16.4468 31.0153 16.5955 30.1279 16.7364C28.9783 16.919 27.9043 17.4586 26.8802 17.9977C25.7184 18.6091 24.4653 19.0226 23.3037 19.6376C22.6562 19.9804 22.0881 20.4548 22.1479 21.2615C22.2018 21.9899 22.8846 22.6082 23.5038 22.8925C24.2221 23.2223 24.9936 23.3198 25.7154 23.6321C26.1486 23.8195 26.6201 24.0053 27.0141 24.2681C27.1914 24.3862 27.3395 24.6195 27.4697 24.7861C27.6362 24.9993 27.8992 25.1569 28.0306 25.3935C28.1427 25.5952 28.2485 25.798 28.3843 25.9866C28.512 26.1639 28.7144 26.4383 28.9101 26.5361" stroke="#404040" stroke-width="1.03985" stroke-linecap="round"/>
<path d="M29.8913 24.6206C29.5781 24.6206 29.2059 24.5373 28.9634 24.3225C28.8752 24.2638 28.7875 24.1447 28.7301 24.065C28.6622 23.9707 28.6093 23.8693 28.5533 23.7685C28.4875 23.6502 28.3561 23.5714 28.2728 23.4648C28.2077 23.3815 28.1337 23.2648 28.045 23.2057C27.848 23.0744 27.6122 22.9815 27.3957 22.8878C27.0348 22.7316 26.649 22.6829 26.2899 22.518C25.9803 22.3758 25.6389 22.0667 25.6119 21.7025C25.582 21.2991 25.8661 21.0619 26.1898 20.8905C26.7706 20.583 27.3972 20.3763 27.978 20.0705C28.4901 19.801 29.0271 19.5312 29.6019 19.4399C30.0456 19.3695 30.5367 19.2951 30.94 19.5319C31.0901 19.6201 31.2063 19.7426 31.3187 19.874C31.4205 19.9932 31.5308 20.1011 31.617 20.2322C31.7173 20.3846 31.799 20.5506 31.8805 20.7137C31.9442 20.841 31.944 20.996 31.9457 21.1353C31.9472 21.255 31.9521 21.4037 32.0109 21.5104C32.1157 21.7003 32.2615 21.8615 32.3441 22.0642C32.4255 22.2639 32.4525 22.4988 32.512 22.7073C32.5631 22.886 32.5445 23.0854 32.4906 23.262C32.4094 23.528 32.1996 23.7269 32.0172 23.9257C31.8898 24.0645 31.7604 24.161 31.5893 24.2437C31.0515 24.5036 30.4887 24.6206 29.8913 24.6206Z" fill="#404040"/>
<path d="M28.9552 24.3151C29.1975 24.5354 29.5746 24.6206 29.8913 24.6206C30.4887 24.6206 31.0515 24.5036 31.5893 24.2437C31.7604 24.161 31.8898 24.0645 32.0172 23.9257C32.1996 23.7269 32.4094 23.528 32.4906 23.262C32.5445 23.0854 32.5631 22.886 32.512 22.7073C32.4525 22.4988 32.4255 22.2639 32.3441 22.0642C32.2615 21.8615 32.1157 21.7003 32.0109 21.5104C31.9521 21.4037 31.9472 21.255 31.9457 21.1353C31.944 20.996 31.9442 20.841 31.8805 20.7137C31.799 20.5506 31.7173 20.3846 31.617 20.2322C31.5308 20.1011 31.4205 19.9932 31.3187 19.874C31.2063 19.7426 31.0901 19.6201 30.94 19.5319C30.5367 19.2951 30.0456 19.3695 29.6019 19.4399C29.0271 19.5312 28.4901 19.801 27.978 20.0705C27.3972 20.3763 26.7706 20.583 26.1898 20.8905C25.8661 21.0619 25.582 21.2991 25.6119 21.7025C25.6389 22.0667 25.9803 22.3758 26.2899 22.518C26.649 22.6829 27.0348 22.7316 27.3957 22.8878C27.6122 22.9815 27.848 23.0744 28.045 23.2057C28.1337 23.2648 28.2077 23.3815 28.2728 23.4648C28.3561 23.5714 28.4875 23.6502 28.5533 23.7685C28.6093 23.8693 28.6622 23.9707 28.7301 24.065C28.794 24.1537 28.8952 24.2909 28.993 24.3398" stroke="#404040" stroke-width="1.03985" stroke-linecap="round"/>
<path d="M87.8986 28.016C87.5786 28.2933 87.1306 28.5707 86.5546 28.848C85.9786 29.104 85.3386 29.3387 84.6346 29.552C83.952 29.7653 83.2373 29.936 82.4906 30.064C81.7653 30.192 81.0826 30.256 80.4426 30.256C78.5866 30.256 76.912 29.968 75.4186 29.392C73.9466 28.816 72.6773 28.016 71.6106 26.992C70.5653 25.968 69.7546 24.7627 69.1786 23.376C68.624 21.9893 68.3466 20.4853 68.3466 18.864C68.3466 16.944 68.656 15.2267 69.2746 13.712C69.9146 12.176 70.7786 10.8853 71.8666 9.84C72.976 8.77333 74.2453 7.97333 75.6746 7.44C77.104 6.88533 78.6186 6.608 80.2186 6.608C81.5626 6.608 82.8106 6.768 83.9626 7.088C85.1146 7.408 86.128 7.81333 87.0026 8.304L85.9466 11.152C85.52 10.896 84.9866 10.6613 84.3466 10.448C83.728 10.2347 83.088 10.064 82.4266 9.936C81.7653 9.78667 81.1466 9.712 80.5706 9.712C79.2053 9.712 77.968 9.92533 76.8586 10.352C75.7493 10.7573 74.8 11.3547 74.0106 12.144C73.2213 12.912 72.6133 13.8507 72.1866 14.96C71.76 16.048 71.5466 17.2747 71.5466 18.64C71.5466 19.8987 71.76 21.0507 72.1866 22.096C72.6133 23.1413 73.2213 24.048 74.0106 24.816C74.8 25.5627 75.7386 26.1493 76.8266 26.576C77.936 26.9813 79.152 27.184 80.4746 27.184C81.264 27.184 82.0426 27.1093 82.8106 26.96C83.5786 26.7893 84.24 26.5547 84.7946 26.256V21.648H80.1866V18.672H87.8986V28.016ZM95.7379 16.752L96.0259 20.592L95.8659 20.08C96.2072 19.2693 96.6979 18.5867 97.3379 18.032C97.9992 17.456 98.6819 17.0187 99.3859 16.72C100.111 16.4 100.741 16.24 101.274 16.24L101.114 19.184C100.111 19.12 99.2259 19.312 98.4579 19.76C97.7112 20.208 97.1139 20.8053 96.6659 21.552C96.2392 22.2987 96.0259 23.0987 96.0259 23.952V30H93.0819V16.752H95.7379ZM110.695 30.32C109.18 30.32 107.879 30.0213 106.791 29.424C105.703 28.8053 104.86 27.9733 104.263 26.928C103.687 25.8613 103.399 24.6453 103.399 23.28C103.399 21.9787 103.729 20.7947 104.391 19.728C105.052 18.6613 105.937 17.808 107.047 17.168C108.156 16.528 109.393 16.208 110.759 16.208C112.508 16.208 113.959 16.72 115.111 17.744C116.263 18.768 117.041 20.176 117.447 21.968L106.535 25.808L105.831 24.048L114.791 20.784L114.151 21.2C113.895 20.496 113.468 19.888 112.871 19.376C112.273 18.8427 111.495 18.576 110.535 18.576C109.724 18.576 108.999 18.7787 108.359 19.184C107.719 19.568 107.217 20.1013 106.855 20.784C106.492 21.4667 106.311 22.2453 106.311 23.12C106.311 24.0373 106.503 24.848 106.887 25.552C107.271 26.2347 107.793 26.7787 108.455 27.184C109.137 27.568 109.905 27.76 110.759 27.76C111.335 27.76 111.889 27.6533 112.423 27.44C112.977 27.2267 113.489 26.9493 113.959 26.608L115.335 28.816C114.673 29.264 113.927 29.6267 113.095 29.904C112.284 30.1813 111.484 30.32 110.695 30.32ZM126.68 30.32C125.442 30.32 124.312 30.0533 123.288 29.52C122.285 28.9867 121.485 28.208 120.888 27.184C120.312 26.1387 120.024 24.8693 120.024 23.376C120.024 21.904 120.333 20.6347 120.952 19.568C121.57 18.48 122.392 17.648 123.416 17.072C124.461 16.496 125.602 16.208 126.84 16.208C128.077 16.208 129.122 16.496 129.976 17.072C130.829 17.6267 131.48 18.288 131.928 19.056L131.736 19.568L132.024 16.752H134.776V30H131.8V26.544L132.12 27.312C132.034 27.5253 131.842 27.8027 131.544 28.144C131.266 28.464 130.882 28.7947 130.392 29.136C129.922 29.4773 129.378 29.7653 128.76 30C128.141 30.2133 127.448 30.32 126.68 30.32ZM127.48 27.856C128.226 27.856 128.898 27.7173 129.496 27.44C130.093 27.1627 130.584 26.7787 130.968 26.288C131.373 25.776 131.65 25.168 131.8 24.464V21.872C131.629 21.232 131.33 20.6773 130.904 20.208C130.477 19.7173 129.965 19.344 129.368 19.088C128.77 18.8107 128.109 18.672 127.384 18.672C126.594 18.672 125.869 18.864 125.208 19.248C124.546 19.632 124.013 20.1653 123.608 20.848C123.224 21.5307 123.032 22.3307 123.032 23.248C123.032 24.1013 123.234 24.88 123.64 25.584C124.045 26.288 124.589 26.8427 125.272 27.248C125.954 27.6533 126.69 27.856 127.48 27.856ZM141.206 10.928H144.182V16.816H147.83V19.152H144.182V30H141.206V19.152H138.774V16.816H141.206V10.928ZM162.287 6.864H165.391V27.024H177.135V30H162.287V6.864ZM186.961 30.32C185.724 30.32 184.593 30.0533 183.569 29.52C182.566 28.9867 181.766 28.208 181.169 27.184C180.593 26.1387 180.305 24.8693 180.305 23.376C180.305 21.904 180.614 20.6347 181.233 19.568C181.852 18.48 182.673 17.648 183.697 17.072C184.742 16.496 185.884 16.208 187.121 16.208C188.358 16.208 189.404 16.496 190.257 17.072C191.11 17.6267 191.761 18.288 192.209 19.056L192.017 19.568L192.305 16.752H195.057V30H192.081V26.544L192.401 27.312C192.316 27.5253 192.124 27.8027 191.825 28.144C191.548 28.464 191.164 28.7947 190.673 29.136C190.204 29.4773 189.66 29.7653 189.041 30C188.422 30.2133 187.729 30.32 186.961 30.32ZM187.761 27.856C188.508 27.856 189.18 27.7173 189.777 27.44C190.374 27.1627 190.865 26.7787 191.249 26.288C191.654 25.776 191.932 25.168 192.081 24.464V21.872C191.91 21.232 191.612 20.6773 191.185 20.208C190.758 19.7173 190.246 19.344 189.649 19.088C189.052 18.8107 188.39 18.672 187.665 18.672C186.876 18.672 186.15 18.864 185.489 19.248C184.828 19.632 184.294 20.1653 183.889 20.848C183.505 21.5307 183.313 22.3307 183.313 23.248C183.313 24.1013 183.516 24.88 183.921 25.584C184.326 26.288 184.87 26.8427 185.553 27.248C186.236 27.6533 186.972 27.856 187.761 27.856ZM200.207 30V5.232H203.183V30H200.207ZM206.383 21.2L212.463 30H208.975L204.399 22.864L206.383 21.2ZM202.255 25.776L201.967 22.928L209.999 16.464L211.823 18.032L202.255 25.776ZM221.788 30.32C220.274 30.32 218.972 30.0213 217.884 29.424C216.796 28.8053 215.954 27.9733 215.356 26.928C214.78 25.8613 214.492 24.6453 214.492 23.28C214.492 21.9787 214.823 20.7947 215.484 19.728C216.146 18.6613 217.031 17.808 218.14 17.168C219.25 16.528 220.487 16.208 221.852 16.208C223.602 16.208 225.052 16.72 226.204 17.744C227.356 18.768 228.135 20.176 228.54 21.968L217.628 25.808L216.924 24.048L225.884 20.784L225.244 21.2C224.988 20.496 224.562 19.888 223.964 19.376C223.367 18.8427 222.588 18.576 221.628 18.576C220.818 18.576 220.092 18.7787 219.452 19.184C218.812 19.568 218.311 20.1013 217.948 20.784C217.586 21.4667 217.404 22.2453 217.404 23.12C217.404 24.0373 217.596 24.848 217.98 25.552C218.364 26.2347 218.887 26.7787 219.548 27.184C220.231 27.568 220.999 27.76 221.852 27.76C222.428 27.76 222.983 27.6533 223.516 27.44C224.071 27.2267 224.583 26.9493 225.052 26.608L226.428 28.816C225.767 29.264 225.02 29.6267 224.188 29.904C223.378 30.1813 222.578 30.32 221.788 30.32ZM235.981 30.256C235.043 30.256 234.125 30.096 233.229 29.776C232.355 29.4347 231.629 28.9333 231.053 28.272L232.301 26.544C232.856 27.0773 233.421 27.4827 233.997 27.76C234.595 28.016 235.181 28.144 235.757 28.144C236.184 28.144 236.579 28.0907 236.941 27.984C237.304 27.8773 237.592 27.7067 237.805 27.472C238.04 27.216 238.157 26.8747 238.157 26.448C238.157 25.9787 237.997 25.6053 237.677 25.328C237.379 25.0507 236.984 24.8267 236.493 24.656C236.024 24.4853 235.523 24.3253 234.989 24.176C233.901 23.8133 233.069 23.312 232.493 22.672C231.917 22.032 231.629 21.2533 231.629 20.336C231.629 19.632 231.8 18.9813 232.141 18.384C232.504 17.7653 233.027 17.264 233.709 16.88C234.413 16.496 235.277 16.304 236.301 16.304C237.219 16.304 238.04 16.4213 238.765 16.656C239.491 16.8693 240.173 17.232 240.813 17.744L239.629 19.6C239.245 19.1947 238.787 18.896 238.253 18.704C237.72 18.512 237.24 18.4053 236.813 18.384C236.451 18.3627 236.099 18.416 235.757 18.544C235.437 18.672 235.171 18.8533 234.957 19.088C234.744 19.3227 234.637 19.6 234.637 19.92C234.637 20.368 234.787 20.7307 235.085 21.008C235.384 21.2853 235.768 21.5093 236.237 21.68C236.728 21.8293 237.208 21.9893 237.677 22.16C238.339 22.352 238.925 22.608 239.437 22.928C239.949 23.248 240.355 23.6427 240.653 24.112C240.973 24.5813 241.133 25.168 241.133 25.872C241.133 26.6613 240.941 27.3973 240.557 28.08C240.195 28.7413 239.629 29.2747 238.861 29.68C238.115 30.064 237.155 30.256 235.981 30.256Z" fill="#404040"/>
</svg>
