<svg width="177" height="93" viewBox="0 0 177 93" fill="none" xmlns="http://www.w3.org/2000/svg">
<path d="M87.2818 50.9161C89.7274 53.1394 93.5344 54 96.7319 54C102.762 54 108.444 52.8192 113.874 50.1947C115.601 49.3598 116.907 48.386 118.193 46.9846C120.034 44.978 122.153 42.9701 122.972 40.2847C123.516 38.5013 123.704 36.4886 123.189 34.685C122.587 32.5803 122.315 30.2086 121.493 28.1926C120.66 26.1466 119.187 24.5188 118.13 22.6019C117.535 21.5245 117.487 20.0235 117.472 18.8146C117.454 17.4084 117.456 15.8442 116.813 14.5585C115.99 12.9123 115.165 11.2366 114.153 9.69818C113.283 8.3749 112.17 7.28516 111.141 6.08225C110.007 4.75557 108.834 3.51864 107.318 2.62864C103.248 0.23798 98.2896 0.988441 93.8103 1.69986C88.0075 2.62147 82.5864 5.34522 77.4169 8.06605C71.5529 11.1523 65.2278 13.2397 59.3643 16.3439C56.096 18.0742 53.2285 20.4688 53.5301 24.5406C53.8025 28.2174 57.2489 31.3383 60.3742 32.7734C64.0001 34.4383 67.8941 34.9303 71.5376 36.5065C73.724 37.4524 76.1041 38.3906 78.0932 39.7167C78.988 40.3132 79.7355 41.4906 80.3926 42.3317C81.2331 43.4076 82.5605 44.2032 83.224 45.3975C83.7895 46.4155 84.3238 47.439 85.0094 48.3913C85.6537 49.2861 86.6757 50.6713 87.6633 51.1651" stroke="#404040" stroke-width="1.31219" stroke-linecap="round"/>
<path d="M87.4341 48.1757C89.574 50.1211 92.9051 50.8741 95.7029 50.8741C100.979 50.8741 105.951 49.8409 110.702 47.5445C112.214 46.814 113.356 45.9619 114.481 44.7356C116.092 42.9799 117.946 41.223 118.663 38.8733C119.139 37.3128 119.303 35.5516 118.853 33.9735C118.326 32.1319 118.088 30.0567 117.369 28.2927C116.64 26.5024 115.352 25.0781 114.426 23.4008C113.906 22.4581 113.863 21.1447 113.85 20.0869C113.835 18.8565 113.837 17.4878 113.274 16.3628C112.554 14.9224 111.832 13.4562 110.947 12.11C110.185 10.9522 109.211 9.99866 108.311 8.94612C107.319 7.78527 106.292 6.70296 104.966 5.92421C101.404 3.83238 97.0659 4.48903 93.1465 5.11152C88.0692 5.91793 83.3257 8.30122 78.8023 10.6819C73.6714 13.3824 68.1369 15.2089 63.0063 17.9251C60.1465 19.4391 57.6375 21.5343 57.9014 25.0972C58.1397 28.3143 61.1554 31.0451 63.89 32.3008C67.0626 33.7576 70.4699 34.1881 73.658 35.5673C75.5711 36.395 77.6536 37.2159 79.3941 38.3762C80.1771 38.8982 80.8311 39.9284 81.4061 40.6643C82.1416 41.6058 83.303 42.3019 83.8836 43.347C84.3784 44.2377 84.8459 45.1333 85.4458 45.9665C86.0095 46.7495 86.9038 47.9615 87.7679 48.3936" stroke="#404040" stroke-width="1.31219" stroke-linecap="round"/>
<path d="M87.5863 44.998C89.4205 46.6655 92.2758 47.311 94.6739 47.311C99.1966 47.311 103.458 46.4254 107.53 44.457C108.826 43.8308 109.805 43.1005 110.77 42.0494C112.151 40.5445 113.74 39.0385 114.354 37.0245C114.762 35.6869 114.903 34.1774 114.516 32.8247C114.065 31.2462 113.861 29.4674 113.245 27.9554C112.62 26.4209 111.516 25.2001 110.722 23.7624C110.277 22.9544 110.24 21.8286 110.229 20.9219C110.215 19.8673 110.217 18.6941 109.735 17.7298C109.118 16.4952 108.499 15.2384 107.74 14.0846C107.087 13.0922 106.252 12.2748 105.481 11.3727C104.631 10.3777 103.75 9.44995 102.614 8.78245C99.5607 6.98946 95.8422 7.5523 92.4827 8.08587C88.1307 8.77708 84.0648 10.8199 80.1877 12.8605C75.7897 15.1752 71.0458 16.7408 66.6482 19.0689C64.197 20.3666 62.0464 22.1625 62.2726 25.2164C62.4769 27.974 65.0617 30.3147 67.4057 31.391C70.1251 32.6397 73.0456 33.0087 75.7782 34.1909C77.418 34.9003 79.2031 35.6039 80.6949 36.5985C81.366 37.0459 81.9266 37.9289 82.4194 38.5597C83.0499 39.3667 84.0453 39.9634 84.543 40.8591C84.9671 41.6226 85.3678 42.3902 85.8821 43.1044C86.3653 43.7755 87.1317 44.8144 87.8724 45.1848" stroke="#404040" stroke-width="1.31219" stroke-linecap="round"/>
<path d="M87.7387 42.2577C89.2672 43.6472 91.6465 44.1851 93.645 44.1851C97.4139 44.1851 100.965 43.4471 104.359 41.8068C105.438 41.285 106.255 40.6764 107.058 39.8005C108.209 38.5464 109.533 37.2914 110.045 35.6131C110.385 34.4984 110.502 33.2405 110.18 32.1133C109.805 30.7978 109.634 29.3155 109.121 28.0555C108.6 26.7768 107.68 25.7594 107.019 24.5613C106.647 23.888 106.617 22.9498 106.607 22.1943C106.596 21.3154 106.598 20.3377 106.196 19.5342C105.681 18.5053 105.166 17.458 104.533 16.4965C103.989 15.6694 103.294 14.9883 102.651 14.2365C101.942 13.4074 101.209 12.6343 100.261 12.078C97.7173 10.5839 94.6186 11.0529 91.819 11.4975C88.1923 12.0735 84.8041 13.7759 81.5731 15.4764C77.9081 17.4053 73.9549 18.7099 70.2903 20.6501C68.2475 21.7315 66.4554 23.2281 66.6439 25.773C66.8141 28.071 68.9681 30.0215 70.9215 30.9185C73.1876 31.9591 75.6214 32.2665 77.8986 33.2517C79.2651 33.8429 80.7526 34.4292 81.9958 35.258C82.5551 35.6309 83.0223 36.3668 83.4329 36.8924C83.9583 37.5649 84.7878 38.0621 85.2026 38.8086C85.556 39.4448 85.8899 40.0845 86.3184 40.6797C86.7211 41.2389 87.3598 42.1047 87.9771 42.4133" stroke="#404040" stroke-width="1.31219" stroke-linecap="round"/>
<path d="M88.3283 39.0799C89.5511 40.1916 91.4546 40.6219 93.0533 40.6219C96.0685 40.6219 98.9092 40.0315 101.624 38.7192C102.488 38.3018 103.141 37.8149 103.784 37.1142C104.704 36.1109 105.764 35.1069 106.173 33.7643C106.445 32.8725 106.539 31.8662 106.282 30.9644C105.981 29.912 105.845 28.7262 105.434 27.7182C105.017 26.6952 104.281 25.8813 103.752 24.9228C103.455 24.3842 103.431 23.6336 103.423 23.0292C103.414 22.3261 103.415 21.544 103.094 20.9011C102.682 20.078 102.27 19.2402 101.764 18.471C101.329 17.8093 100.772 17.2645 100.258 16.663C99.691 15.9997 99.1041 15.3812 98.3464 14.9362C96.3111 13.7409 93.8322 14.1161 91.5925 14.4718C88.6912 14.9326 85.9806 16.2945 83.3958 17.6549C80.4638 19.1981 77.3013 20.2417 74.3695 21.7938C72.7354 22.659 71.3016 23.8563 71.4524 25.8922C71.5886 27.7306 73.3118 29.291 74.8745 30.0086C76.6874 30.841 78.6345 31.087 80.4562 31.8751C81.5494 32.3481 82.7394 32.8172 83.734 33.4802C84.1814 33.7785 84.5551 34.3672 84.8837 34.7877C85.3039 35.3257 85.9676 35.7235 86.2994 36.3207C86.5821 36.8296 86.8493 37.3414 87.1921 37.8175C87.5142 38.2649 88.0252 38.9575 88.519 39.2044" stroke="#404040" stroke-width="1.31219" stroke-linecap="round"/>
<path d="M88.4806 36.3396C89.3977 37.1734 90.8253 37.4961 92.0244 37.4961C94.2857 37.4961 96.4163 37.0533 98.4526 36.0691C99.1003 35.756 99.5901 35.3908 100.072 34.8653C100.763 34.1128 101.557 33.3599 101.864 32.3529C102.069 31.6841 102.139 30.9293 101.946 30.253C101.72 29.4637 101.618 28.5743 101.31 27.8183C100.997 27.0511 100.445 26.4406 100.049 25.7218C99.8257 25.3178 99.8074 24.7549 99.8018 24.3016C99.7952 23.7742 99.796 23.1877 99.5549 22.7055C99.2463 22.0882 98.9369 21.4598 98.5574 20.8829C98.2309 20.3867 97.8136 19.978 97.428 19.5269C97.0027 19.0294 96.5625 18.5656 95.9942 18.2318C94.4678 17.3353 92.6085 17.6168 90.9288 17.8835C88.7528 18.2291 86.7199 19.2506 84.7813 20.2709C82.5823 21.4282 80.2104 22.211 78.0116 23.3751C76.7859 24.0239 75.7106 24.9219 75.8237 26.4488C75.9259 27.8276 77.2183 28.9979 78.3903 29.5361C79.75 30.1605 81.2102 30.3449 82.5765 30.936C83.3964 31.2907 84.289 31.6426 85.0349 32.1398C85.3704 32.3636 85.6508 32.8051 85.8972 33.1205C86.2124 33.5239 86.7101 33.8223 86.9589 34.2702C87.171 34.6519 87.3714 35.0357 87.6285 35.3928C87.8701 35.7284 88.2533 36.2478 88.6237 36.433" stroke="#404040" stroke-width="1.31219" stroke-linecap="round"/>
<path d="M88.6328 33.1619C89.2442 33.7177 90.196 33.9329 90.9953 33.9329C92.5029 33.9329 93.9233 33.6377 95.2808 32.9815C95.7126 32.7728 96.0392 32.5294 96.3606 32.179C96.8209 31.6774 97.3506 31.1754 97.5554 30.504C97.6914 30.0582 97.7383 29.555 97.6095 29.1041C97.4592 28.5779 97.391 27.985 97.1857 27.481C96.9773 26.9695 96.6092 26.5626 96.3448 26.0833C96.1962 25.814 96.184 25.4387 96.1803 25.1365C96.1759 24.785 96.1764 24.3939 96.0157 24.0725C95.8099 23.6609 95.6037 23.242 95.3507 22.8574C95.133 22.5266 94.8548 22.2542 94.5977 21.9534C94.3142 21.6218 94.0208 21.3125 93.6419 21.09C92.6243 20.4924 91.3848 20.68 90.2649 20.8578C88.8143 21.0882 87.459 21.7692 86.1666 22.4494C84.7006 23.2209 83.1193 23.7428 81.6535 24.5188C80.8364 24.9514 80.1195 25.55 80.1949 26.568C80.263 27.4872 81.1246 28.2674 81.9059 28.6262C82.8124 29.0424 83.7859 29.1654 84.6968 29.5595C85.2434 29.796 85.8384 30.0305 86.3357 30.362C86.5594 30.5112 86.7463 30.8055 86.9105 31.0158C87.1207 31.2848 87.4525 31.4837 87.6184 31.7822C87.7598 32.0367 87.8933 32.2926 88.0647 32.5307C88.2258 32.7544 88.4813 33.1007 88.7282 33.2241" stroke="#404040" stroke-width="1.31219" stroke-linecap="round"/>
<path d="M89.9664 30.807C89.5712 30.807 89.1015 30.7018 88.7955 30.4308C88.6842 30.3567 88.5735 30.2065 88.5011 30.1059C88.4154 29.9869 88.3486 29.8589 88.2779 29.7317C88.195 29.5824 88.0291 29.483 87.924 29.3485C87.8419 29.2433 87.7484 29.0962 87.6366 29.0216C87.3879 28.8558 87.0904 28.7386 86.8171 28.6203C86.3617 28.4233 85.875 28.3618 85.4217 28.1537C85.0311 27.9743 84.6003 27.5842 84.5662 27.1246C84.5285 26.6156 84.8869 26.3163 85.2955 26.1C86.0284 25.712 86.8191 25.451 87.552 25.0653C88.1982 24.7252 88.8759 24.3847 89.6012 24.2695C90.1611 24.1806 90.7809 24.0868 91.2897 24.3856C91.4791 24.4968 91.6259 24.6515 91.7676 24.8173C91.8962 24.9677 92.0353 25.1039 92.1441 25.2693C92.2706 25.4616 92.3737 25.671 92.4766 25.8768C92.557 26.0375 92.5567 26.2331 92.5589 26.4088C92.5608 26.5599 92.5669 26.7476 92.6412 26.8822C92.7734 27.1219 92.9574 27.3253 93.0616 27.5811C93.1643 27.8331 93.1983 28.1295 93.2735 28.3926C93.3379 28.6181 93.3145 28.8697 93.2465 29.0926C93.144 29.4283 92.8792 29.6793 92.6491 29.9301C92.4883 30.1053 92.3251 30.227 92.1091 30.3313C91.4304 30.6594 90.7202 30.807 89.9664 30.807Z" fill="#404040"/>
<path d="M88.7852 30.4215C89.0909 30.6994 89.5667 30.807 89.9664 30.807C90.7202 30.807 91.4304 30.6594 92.1091 30.3313C92.3251 30.227 92.4883 30.1053 92.6491 29.9301C92.8792 29.6793 93.144 29.4283 93.2465 29.0926C93.3145 28.8697 93.3379 28.6181 93.2735 28.3926C93.1983 28.1295 93.1643 27.8331 93.0616 27.5811C92.9574 27.3253 92.7734 27.1219 92.6412 26.8822C92.5669 26.7476 92.5608 26.5599 92.5589 26.4088C92.5567 26.2331 92.557 26.0375 92.4766 25.8768C92.3737 25.671 92.2706 25.4616 92.1441 25.2693C92.0353 25.1039 91.8962 24.9677 91.7676 24.8173C91.6259 24.6515 91.4791 24.4968 91.2897 24.3856C90.7809 24.0868 90.1611 24.1806 89.6012 24.2695C88.8759 24.3847 88.1982 24.7252 87.552 25.0653C86.8191 25.451 86.0284 25.712 85.2955 26.1C84.8869 26.3163 84.5285 26.6156 84.5662 27.1246C84.6003 27.5842 85.0311 27.9743 85.4217 28.1537C85.875 28.3618 86.3617 28.4233 86.8171 28.6203C87.0904 28.7386 87.3879 28.8558 87.6366 29.0216C87.7484 29.0962 87.8419 29.2433 87.924 29.3485C88.0291 29.483 88.195 29.5824 88.2779 29.7317C88.3486 29.8589 88.4154 29.9869 88.5011 30.1059C88.5816 30.2178 88.7094 30.3909 88.8328 30.4526" stroke="#404040" stroke-width="1.31219" stroke-linecap="round"/>
<path d="M21.44 87.016C21.12 87.2933 20.672 87.5707 20.096 87.848C19.52 88.104 18.88 88.3387 18.176 88.552C17.4933 88.7653 16.7787 88.936 16.032 89.064C15.3067 89.192 14.624 89.256 13.984 89.256C12.128 89.256 10.4533 88.968 8.96 88.392C7.488 87.816 6.21867 87.016 5.152 85.992C4.10667 84.968 3.296 83.7627 2.72 82.376C2.16533 80.9893 1.888 79.4853 1.888 77.864C1.888 75.944 2.19733 74.2267 2.816 72.712C3.456 71.176 4.32 69.8853 5.408 68.84C6.51733 67.7733 7.78667 66.9733 9.216 66.44C10.6453 65.8853 12.16 65.608 13.76 65.608C15.104 65.608 16.352 65.768 17.504 66.088C18.656 66.408 19.6693 66.8133 20.544 67.304L19.488 70.152C19.0613 69.896 18.528 69.6613 17.888 69.448C17.2693 69.2347 16.6293 69.064 15.968 68.936C15.3067 68.7867 14.688 68.712 14.112 68.712C12.7467 68.712 11.5093 68.9253 10.4 69.352C9.29067 69.7573 8.34133 70.3547 7.552 71.144C6.76267 71.912 6.15467 72.8507 5.728 73.96C5.30133 75.048 5.088 76.2747 5.088 77.64C5.088 78.8987 5.30133 80.0507 5.728 81.096C6.15467 82.1413 6.76267 83.048 7.552 83.816C8.34133 84.5627 9.28 85.1493 10.368 85.576C11.4773 85.9813 12.6933 86.184 14.016 86.184C14.8053 86.184 15.584 86.1093 16.352 85.96C17.12 85.7893 17.7813 85.5547 18.336 85.256V80.648H13.728V77.672H21.44V87.016ZM29.2793 75.752L29.5673 79.592L29.4073 79.08C29.7486 78.2693 30.2393 77.5867 30.8793 77.032C31.5406 76.456 32.2233 76.0187 32.9273 75.72C33.6526 75.4 34.2819 75.24 34.8153 75.24L34.6553 78.184C33.6526 78.12 32.7673 78.312 31.9993 78.76C31.2526 79.208 30.6553 79.8053 30.2073 80.552C29.7806 81.2987 29.5673 82.0987 29.5673 82.952V89H26.6233V75.752H29.2793ZM44.236 89.32C42.7213 89.32 41.42 89.0213 40.332 88.424C39.244 87.8053 38.4013 86.9733 37.804 85.928C37.228 84.8613 36.94 83.6453 36.94 82.28C36.94 80.9787 37.2707 79.7947 37.932 78.728C38.5933 77.6613 39.4787 76.808 40.588 76.168C41.6973 75.528 42.9347 75.208 44.3 75.208C46.0493 75.208 47.5 75.72 48.652 76.744C49.804 77.768 50.5827 79.176 50.988 80.968L40.076 84.808L39.372 83.048L48.332 79.784L47.692 80.2C47.436 79.496 47.0093 78.888 46.412 78.376C45.8147 77.8427 45.036 77.576 44.076 77.576C43.2653 77.576 42.54 77.7787 41.9 78.184C41.26 78.568 40.7587 79.1013 40.396 79.784C40.0333 80.4667 39.852 81.2453 39.852 82.12C39.852 83.0373 40.044 83.848 40.428 84.552C40.812 85.2347 41.3347 85.7787 41.996 86.184C42.6787 86.568 43.4467 86.76 44.3 86.76C44.876 86.76 45.4307 86.6533 45.964 86.44C46.5187 86.2267 47.0307 85.9493 47.5 85.608L48.876 87.816C48.2147 88.264 47.468 88.6267 46.636 88.904C45.8253 89.1813 45.0253 89.32 44.236 89.32ZM60.221 89.32C58.9837 89.32 57.853 89.0533 56.829 88.52C55.8263 87.9867 55.0263 87.208 54.429 86.184C53.853 85.1387 53.565 83.8693 53.565 82.376C53.565 80.904 53.8743 79.6347 54.493 78.568C55.1117 77.48 55.933 76.648 56.957 76.072C58.0023 75.496 59.1437 75.208 60.381 75.208C61.6183 75.208 62.6637 75.496 63.517 76.072C64.3703 76.6267 65.021 77.288 65.469 78.056L65.277 78.568L65.565 75.752H68.317V89H65.341V85.544L65.661 86.312C65.5757 86.5253 65.3837 86.8027 65.085 87.144C64.8077 87.464 64.4237 87.7947 63.933 88.136C63.4637 88.4773 62.9197 88.7653 62.301 89C61.6823 89.2133 60.989 89.32 60.221 89.32ZM61.021 86.856C61.7677 86.856 62.4397 86.7173 63.037 86.44C63.6343 86.1627 64.125 85.7787 64.509 85.288C64.9143 84.776 65.1917 84.168 65.341 83.464V80.872C65.1703 80.232 64.8717 79.6773 64.445 79.208C64.0183 78.7173 63.5063 78.344 62.909 78.088C62.3117 77.8107 61.6503 77.672 60.925 77.672C60.1357 77.672 59.4103 77.864 58.749 78.248C58.0877 78.632 57.5543 79.1653 57.149 79.848C56.765 80.5307 56.573 81.3307 56.573 82.248C56.573 83.1013 56.7757 83.88 57.181 84.584C57.5863 85.288 58.1303 85.8427 58.813 86.248C59.4957 86.6533 60.2317 86.856 61.021 86.856ZM74.747 69.928H77.723V75.816H81.371V78.152H77.723V89H74.747V78.152H72.315V75.816H74.747V69.928ZM95.828 65.864H98.932V86.024H110.676V89H95.828V65.864ZM120.502 89.32C119.265 89.32 118.134 89.0533 117.11 88.52C116.108 87.9867 115.308 87.208 114.71 86.184C114.134 85.1387 113.846 83.8693 113.846 82.376C113.846 80.904 114.156 79.6347 114.774 78.568C115.393 77.48 116.214 76.648 117.238 76.072C118.284 75.496 119.425 75.208 120.662 75.208C121.9 75.208 122.945 75.496 123.798 76.072C124.652 76.6267 125.302 77.288 125.75 78.056L125.558 78.568L125.846 75.752H128.598V89H125.622V85.544L125.942 86.312C125.857 86.5253 125.665 86.8027 125.366 87.144C125.089 87.464 124.705 87.7947 124.214 88.136C123.745 88.4773 123.201 88.7653 122.582 89C121.964 89.2133 121.27 89.32 120.502 89.32ZM121.302 86.856C122.049 86.856 122.721 86.7173 123.318 86.44C123.916 86.1627 124.406 85.7787 124.79 85.288C125.196 84.776 125.473 84.168 125.622 83.464V80.872C125.452 80.232 125.153 79.6773 124.726 79.208C124.3 78.7173 123.788 78.344 123.19 78.088C122.593 77.8107 121.932 77.672 121.206 77.672C120.417 77.672 119.692 77.864 119.03 78.248C118.369 78.632 117.836 79.1653 117.43 79.848C117.046 80.5307 116.854 81.3307 116.854 82.248C116.854 83.1013 117.057 83.88 117.462 84.584C117.868 85.288 118.412 85.8427 119.094 86.248C119.777 86.6533 120.513 86.856 121.302 86.856ZM133.748 89V64.232H136.724V89H133.748ZM139.924 80.2L146.004 89H142.516L137.94 81.864L139.924 80.2ZM135.796 84.776L135.508 81.928L143.54 75.464L145.364 77.032L135.796 84.776ZM155.33 89.32C153.815 89.32 152.514 89.0213 151.426 88.424C150.338 87.8053 149.495 86.9733 148.898 85.928C148.322 84.8613 148.034 83.6453 148.034 82.28C148.034 80.9787 148.364 79.7947 149.026 78.728C149.687 77.6613 150.572 76.808 151.682 76.168C152.791 75.528 154.028 75.208 155.394 75.208C157.143 75.208 158.594 75.72 159.746 76.744C160.898 77.768 161.676 79.176 162.082 80.968L151.17 84.808L150.466 83.048L159.426 79.784L158.786 80.2C158.53 79.496 158.103 78.888 157.506 78.376C156.908 77.8427 156.13 77.576 155.17 77.576C154.359 77.576 153.634 77.7787 152.994 78.184C152.354 78.568 151.852 79.1013 151.49 79.784C151.127 80.4667 150.946 81.2453 150.946 82.12C150.946 83.0373 151.138 83.848 151.522 84.552C151.906 85.2347 152.428 85.7787 153.09 86.184C153.772 86.568 154.54 86.76 155.394 86.76C155.97 86.76 156.524 86.6533 157.058 86.44C157.612 86.2267 158.124 85.9493 158.594 85.608L159.97 87.816C159.308 88.264 158.562 88.6267 157.73 88.904C156.919 89.1813 156.119 89.32 155.33 89.32ZM169.523 89.256C168.584 89.256 167.667 89.096 166.771 88.776C165.896 88.4347 165.171 87.9333 164.595 87.272L165.843 85.544C166.397 86.0773 166.963 86.4827 167.539 86.76C168.136 87.016 168.723 87.144 169.299 87.144C169.725 87.144 170.12 87.0907 170.483 86.984C170.845 86.8773 171.133 86.7067 171.347 86.472C171.581 86.216 171.699 85.8747 171.699 85.448C171.699 84.9787 171.539 84.6053 171.219 84.328C170.92 84.0507 170.525 83.8267 170.035 83.656C169.565 83.4853 169.064 83.3253 168.531 83.176C167.443 82.8133 166.611 82.312 166.035 81.672C165.459 81.032 165.171 80.2533 165.171 79.336C165.171 78.632 165.341 77.9813 165.683 77.384C166.045 76.7653 166.568 76.264 167.251 75.88C167.955 75.496 168.819 75.304 169.843 75.304C170.76 75.304 171.581 75.4213 172.307 75.656C173.032 75.8693 173.715 76.232 174.355 76.744L173.171 78.6C172.787 78.1947 172.328 77.896 171.795 77.704C171.261 77.512 170.781 77.4053 170.355 77.384C169.992 77.3627 169.64 77.416 169.299 77.544C168.979 77.672 168.712 77.8533 168.499 78.088C168.285 78.3227 168.179 78.6 168.179 78.92C168.179 79.368 168.328 79.7307 168.627 80.008C168.925 80.2853 169.309 80.5093 169.779 80.68C170.269 80.8293 170.749 80.9893 171.219 81.16C171.88 81.352 172.467 81.608 172.979 81.928C173.491 82.248 173.896 82.6427 174.195 83.112C174.515 83.5813 174.675 84.168 174.675 84.872C174.675 85.6613 174.483 86.3973 174.099 87.08C173.736 87.7413 173.171 88.2747 172.403 88.68C171.656 89.064 170.696 89.256 169.523 89.256Z" fill="#404040"/>
</svg>
